<svg xmlns="http://www.w3.org/2000/svg" width="900" height="1200" viewBox="0 0 900 1200" role="img" aria-label="Chicken karahi kit">
  <defs>
    <linearGradient id="bg" x1="0" y1="0" x2="1" y2="1">
      <stop offset="0" stop-color="#0f1f12"/>
      <stop offset="0.55" stop-color="#2b1408"/>
      <stop offset="1" stop-color="#0b1220"/>
    </linearGradient>
    <radialGradient id="glow" cx="48%" cy="34%" r="70%">
      <stop offset="0" stop-color="#35c36b" stop-opacity="0.40"/>
      <stop offset="0.58" stop-color="#ff6a2a" stop-opacity="0.18"/>
      <stop offset="1" stop-color="#000" stop-opacity="0"/>
    </radialGradient>
    <filter id="shadow" x="-20%" y="-20%" width="140%" height="140%">
      <feDropShadow dx="0" dy="22" stdDeviation="18" flood-color="#000" flood-opacity="0.35"/>
    </filter>
  </defs>
  <rect width="900" height="1200" fill="url(#bg)"/>
  <rect width="900" height="1200" fill="url(#glow)"/>

  <!-- Karahi pan -->
  <g transform="translate(90 330)" filter="url(#shadow)">
    <ellipse cx="360" cy="610" rx="380" ry="150" fill="#000" opacity="0.35"/>
    <path d="M70 280c0 210 140 380 290 380h0c150 0 290-170 290-380v-40H70z" fill="#1a1a1a" opacity="0.9"/>
    <path d="M70 255c0 85 155 150 290 150s290-65 290-150-155-150-290-150-290 65-290 150z" fill="#2a2a2a"/>
    <path d="M150 260c40-70 120-110 210-110s170 40 210 110c15 26-5 55-35 62-52 12-112 18-175 18s-123-7-175-20c-32-8-46-34-35-60z" fill="#ff6a2a" opacity="0.92"/>
    <circle cx="300" cy="250" r="16" fill="#35c36b"/>
    <circle cx="420" cy="290" r="14" fill="#35c36b" opacity="0.85"/>
    <circle cx="360" cy="230" r="16" fill="#ffb24a" opacity="0.85"/>
    <path d="M30 360c-55 35-70 85-50 130" fill="none" stroke="#1a1a1a" stroke-width="24" stroke-linecap="round" opacity="0.9"/>
    <path d="M690 360c55 35 70 85 50 130" fill="none" stroke="#1a1a1a" stroke-width="24" stroke-linecap="round" opacity="0.9"/>
  </g>

  <g transform="translate(90 90)" opacity="0.95">
    <rect x="0" y="0" width="720" height="120" rx="28" fill="#ffffff" opacity="0.12"/>
    <rect x="0" y="0" width="10" height="120" rx="5" fill="#35c36b"/>
  </g>
</svg>

