<svg xmlns="http://www.w3.org/2000/svg" width="1600" height="1200" viewBox="0 0 1600 1200" role="img" aria-label="Cooking ingredients on a table">
  <defs>
    <linearGradient id="bg" x1="0" y1="0" x2="1" y2="1">
      <stop offset="0" stop-color="#fff3e5"/>
      <stop offset="1" stop-color="#f7f0e6"/>
    </linearGradient>
    <linearGradient id="board" x1="0" y1="0" x2="1" y2="0">
      <stop offset="0" stop-color="#d9a46a"/>
      <stop offset="1" stop-color="#c4894e"/>
    </linearGradient>
    <filter id="shadow" x="-20%" y="-20%" width="140%" height="140%">
      <feDropShadow dx="0" dy="18" stdDeviation="18" flood-color="#000" flood-opacity="0.18"/>
    </filter>
  </defs>

  <rect width="1600" height="1200" fill="url(#bg)"/>

  <!-- Cutting board -->
  <g filter="url(#shadow)">
    <rect x="180" y="260" width="1240" height="720" rx="42" fill="url(#board)"/>
    <rect x="220" y="300" width="1160" height="640" rx="34" fill="#e7b37b" opacity="0.55"/>
  </g>

  <!-- Bowl -->
  <g transform="translate(920 520)" filter="url(#shadow)">
    <ellipse cx="220" cy="220" rx="260" ry="120" fill="#ffffff" opacity="0.95"/>
    <path d="M-10 210c0 140 110 250 230 250s230-110 230-250v-20H-10z" fill="#ffffff" opacity="0.92"/>
    <ellipse cx="220" cy="210" rx="220" ry="86" fill="#f0f0f0"/>
    <circle cx="160" cy="198" r="22" fill="#ff6a2a"/>
    <circle cx="230" cy="185" r="18" fill="#35c36b"/>
    <circle cx="280" cy="205" r="14" fill="#ffb24a"/>
  </g>

  <!-- Ingredients -->
  <g opacity="0.95">
    <circle cx="460" cy="520" r="110" fill="#ffb24a" filter="url(#shadow)"/>
    <circle cx="540" cy="560" r="92" fill="#ff6a2a" filter="url(#shadow)" opacity="0.92"/>
    <circle cx="420" cy="620" r="78" fill="#35c36b" filter="url(#shadow)" opacity="0.92"/>
    <rect x="360" y="740" width="420" height="80" rx="24" fill="#ffffff" filter="url(#shadow)" opacity="0.9"/>
    <rect x="380" y="758" width="180" height="14" rx="7" fill="#0b1220" opacity="0.18"/>
    <rect x="380" y="784" width="320" height="14" rx="7" fill="#0b1220" opacity="0.14"/>
  </g>

  <!-- Accent doodles -->
  <g opacity="0.35">
    <path d="M1120 260c120 20 200 80 240 180" fill="none" stroke="#ff6a2a" stroke-width="14" stroke-linecap="round"/>
    <path d="M300 330c-70 70-110 150-120 240" fill="none" stroke="#35c36b" stroke-width="14" stroke-linecap="round"/>
  </g>
</svg>

